<svg xmlns="http://www.w3.org/2000/svg" viewBox="0 0 36 36" role="img" aria-labelledby="title desc">
  <title id="title">ccplant menu bar icon</title>
  <desc id="desc">A monochrome sprout formed from branching agent network paths.</desc>
  <path fill="#000" fill-rule="evenodd" d="M6.6 4.8c5.5 0 9.7 1.7 11.4 5.9 1.7-4.2 5.9-5.9 11.4-5.9 0 6.9-3.1 11.3-9.3 11.8v3.8l3.1-3.1a2.25 2.25 0 1 1 1.6 1.6l-4.7 4.7v1.8a2.53 2.53 0 1 1-4.2 0v-1.8l-4.7-4.7a2.25 2.25 0 1 1 1.6-1.6l3.1 3.1v-3.8C9.7 16.1 6.6 11.7 6.6 4.8Zm2.4 2.4c.7 4.1 3 6.3 6.9 7-.7-4-3-6.2-6.9-7Zm18 0c-3.9.8-6.2 3-6.9 7 3.9-.7 6.2-2.9 6.9-7Z"/>
</svg>
